<?xml version="1.0" encoding="UTF-8"?>
<svg width="400px" height="400px" viewBox="0 0 400 400" version="1.1" xmlns="http://www.w3.org/2000/svg" xmlns:xlink="http://www.w3.org/1999/xlink">
    <!-- Generator: Sketch 53.2 (72643) - https://sketchapp.com -->
    <title>Favicon</title>
    <desc>Created with Sketch.</desc>
    <defs>
        <linearGradient x1="21.6183036%" y1="17.2164352%" x2="100%" y2="17.2164352%" id="linearGradient-1">
            <stop stop-color="#97E591" offset="0%"></stop>
            <stop stop-color="#30CAB3" offset="100%"></stop>
        </linearGradient>
        <linearGradient x1="0.548786782%" y1="83.1247447%" x2="76.1627604%" y2="83.1247447%" id="linearGradient-2">
            <stop stop-color="#30CAB3" offset="0%"></stop>
            <stop stop-color="#97E591" offset="100%"></stop>
        </linearGradient>
    </defs>
    <g id="Favicon" stroke="none" stroke-width="1" fill="none" fill-rule="evenodd">
        <g id="Icon">
            <rect id="Bound" x="0" y="0" width="400" height="400"></rect>
            <path d="M200,366.342712 C316.666667,283.009379 375,199.676046 375,116.342712 C375,16.3427125 275,16.3427125 200,66.3427125 C125,16.3427125 25,16.3427125 25,116.342712 C25,199.676046 83.3333333,283.009379 200,366.342712 Z" id="Oval" stroke="url(#linearGradient-1)" stroke-width="10" stroke-linecap="round" stroke-linejoin="round" transform="translate(200.000000, 199.921356) rotate(-180.000000) translate(-200.000000, -199.921356) "></path>
            <path d="M200.122951,328.645306 C175.45082,344.705415 153.278689,351.915797 133.606557,350.276453 C145.081967,340.440387 155.737705,333.063338 165.57377,328.145306 C114.754098,328.145306 76.2295082,319.948584 50,303.555142 C92.6229508,292.079732 131.147541,290.440387 165.57377,298.637109 C114.754098,269.128912 86.0655738,231.423994 79.5081967,185.522355 C118.852459,198.637109 154.098361,228.964978 185.245902,276.505961 C170.409836,228.964978 175.327869,170.768256 200,101.915797 C224.508197,170.768256 229.42623,228.964978 214.754098,276.505961 C245.901639,228.964978 281.147541,198.637109 320.491803,185.522355 C313.934426,231.423994 285.245902,269.128912 234.42623,298.637109 C268.852459,290.440387 307.377049,292.079732 350,303.555142 C323.770492,319.948584 285.245902,328.145306 234.42623,328.145306 C244.262295,333.063338 254.918033,340.440387 266.393443,350.276453 C246.721311,351.915797 224.631148,344.705415 200.122951,328.645306 Z" id="Canna" fill="url(#linearGradient-2)"></path>
        </g>
    </g>
</svg>