<?xml version="1.0" encoding="UTF-8"?>
<svg width="1000px" height="1000px" viewBox="0 0 1000 1000" version="1.1" xmlns="http://www.w3.org/2000/svg" xmlns:xlink="http://www.w3.org/1999/xlink">
    <!-- Generator: Sketch 53.2 (72643) - https://sketchapp.com -->
    <title>Logo Square</title>
    <desc>Created with Sketch.</desc>
    <defs>
        <linearGradient x1="21.6183036%" y1="17.2164352%" x2="100%" y2="17.2164352%" id="linearGradient-1">
            <stop stop-color="#97E591" offset="0%"></stop>
            <stop stop-color="#30CAB3" offset="100%"></stop>
        </linearGradient>
        <linearGradient x1="0.548786782%" y1="83.1247447%" x2="76.1627604%" y2="83.1247447%" id="linearGradient-2">
            <stop stop-color="#30CAB3" offset="0%"></stop>
            <stop stop-color="#97E591" offset="100%"></stop>
        </linearGradient>
    </defs>
    <g id="Logo-Square" stroke="none" stroke-width="1" fill="none" fill-rule="evenodd">
        <g id="Icon" transform="translate(150.000000, 50.000000)">
            <path d="M350,665.685425 C583.333333,499.018758 700,332.352092 700,165.685425 C700,-34.3145751 500,-34.3145751 350,65.6854249 C200,-34.3145751 1.26937779e-14,-34.3145751 0,165.685425 C0,332.352092 116.666667,499.018758 350,665.685425 Z" id="Oval" stroke="url(#linearGradient-1)" stroke-width="20" stroke-linecap="round" stroke-linejoin="round" transform="translate(350.000000, 332.842712) rotate(-180.000000) translate(-350.000000, -332.842712) "></path>
            <path d="M350.245902,590.290611 C300.901639,622.41083 256.557377,636.831595 217.213115,633.552906 C240.163934,613.880775 261.47541,599.126677 281.147541,589.290611 C179.508197,589.290611 102.459016,572.897168 50,540.110283 C135.245902,517.159463 212.295082,513.880775 281.147541,530.274218 C179.508197,471.257824 122.131148,395.847988 109.016393,304.044709 C187.704918,330.274218 258.196721,390.929955 320.491803,486.011923 C290.819672,390.929955 300.655738,274.536513 350,136.831595 C399.016393,274.536513 408.852459,390.929955 379.508197,486.011923 C441.803279,390.929955 512.295082,330.274218 590.983607,304.044709 C577.868852,395.847988 520.491803,471.257824 418.852459,530.274218 C487.704918,513.880775 564.754098,517.159463 650,540.110283 C597.540984,572.897168 520.491803,589.290611 418.852459,589.290611 C438.52459,599.126677 459.836066,613.880775 482.786885,633.552906 C443.442623,636.831595 399.262295,622.41083 350.245902,590.290611 Z" id="Canna" fill="url(#linearGradient-2)"></path>
        </g>
        <path d="M290.125,899.9 C278.324941,915.100076 262.125103,922.7 241.525,922.7 C224.124913,922.7 209.875056,917.200055 198.775,906.2 C187.674945,895.199945 182.125,881.300084 182.125,864.5 C182.125,854.099948 184.699974,844.500044 189.85,835.7 C195.000026,826.899956 202.124955,820.000025 211.225,815 C220.325046,809.999975 230.149947,807.5 240.7,807.5 C251.250053,807.5 260.699958,809.52498 269.05,813.575 C277.400042,817.62502 284.374972,823.549961 289.975,831.35 L280.075,839 C269.674948,826.399937 256.825077,820.1 241.525,820.1 C229.024938,820.1 218.250045,824.499956 209.2,833.3 C200.149955,842.100044 195.625,852.874936 195.625,865.625 C195.625,878.375064 200.049956,889.024957 208.9,897.575 C217.750044,906.125043 229.22493,910.4 243.325,910.4 C257.425071,910.4 269.674948,904.350061 280.075,892.25 L290.125,899.9 Z M415.925,920 L402.275,920 L385.325,883.25 L340.025,883.25 L323.225,920 L308.975,920 L360.875,805.85 L364.775,805.85 L415.925,920 Z M379.475,870.2 L362.825,833.15 L346.025,870.2 L379.475,870.2 Z M526.875,920 L522.975,920 L453.375,840.35 L453.375,920 L440.175,920 L440.175,810.2 L444.075,810.2 L514.125,890.9 L514.125,810.2 L526.875,810.2 L526.875,920 Z M647.875,920 L643.975,920 L574.375,840.35 L574.375,920 L561.175,920 L561.175,810.2 L565.075,810.2 L635.125,890.9 L635.125,810.2 L647.875,810.2 L647.875,920 Z M693.425,920 L680.525,920 L680.525,810.2 L693.425,810.2 L693.425,920 Z M822.825,920 L809.175,920 L792.225,883.25 L746.925,883.25 L730.125,920 L715.875,920 L767.775,805.85 L771.675,805.85 L822.825,920 Z M786.375,870.2 L769.725,833.15 L752.925,870.2 L786.375,870.2 Z" id="CANNIA" fill="#61DD8E" fill-rule="nonzero"></path>
    </g>
</svg>