<?xml version="1.0" encoding="UTF-8"?>
<svg width="2170px" height="460px" viewBox="0 0 2170 460" version="1.1" xmlns="http://www.w3.org/2000/svg" xmlns:xlink="http://www.w3.org/1999/xlink">
    <!-- Generator: Sketch 53.2 (72643) - https://sketchapp.com -->
    <title>Logo Long</title>
    <desc>Created with Sketch.</desc>
    <defs>
        <linearGradient x1="21.6183036%" y1="17.2164352%" x2="100%" y2="17.2164352%" id="linearGradient-1">
            <stop stop-color="#97E591" offset="0%"></stop>
            <stop stop-color="#30CAB3" offset="100%"></stop>
        </linearGradient>
        <linearGradient x1="0.548786782%" y1="83.1247447%" x2="76.1627604%" y2="83.1247447%" id="linearGradient-2">
            <stop stop-color="#30CAB3" offset="0%"></stop>
            <stop stop-color="#97E591" offset="100%"></stop>
        </linearGradient>
    </defs>
    <g id="Logo-Long" stroke="none" stroke-width="1" fill="none" fill-rule="evenodd">
        <path d="M745.294118,143.529412 L723.333333,160.392157 C697.189412,127.973694 663.594976,111.764706 622.54902,111.764706 C589.0848,111.764706 560.261559,123.529294 536.078431,147.058824 C511.895304,170.588353 499.803922,199.411594 499.803922,233.529412 C499.803922,267.647229 511.633869,296.143676 535.294118,319.019608 C558.954367,341.895539 588.561914,353.333333 624.117647,353.333333 C663.856408,353.333333 696.927973,337.908651 723.333333,307.058824 L745.294118,323.921569 C731.437839,342.222314 713.921675,356.143743 692.745098,365.686275 C671.568522,375.228806 648.170063,380 622.54902,380 C577.842914,380 541.241973,365.882494 512.745098,337.647059 C484.248224,309.411624 470,273.725706 470,230.588235 C470,203.921435 476.601241,179.281159 489.803922,156.666667 C503.006602,134.052175 521.307073,116.339933 544.705882,103.529412 C568.104692,90.7188902 593.267839,84.3137255 620.196078,84.3137255 C647.124318,84.3137255 671.307082,89.4117137 692.745098,99.6078431 C714.183114,109.803973 731.699278,124.444349 745.294118,143.529412 Z M943.202614,80 L1074.57516,372.941176 L1044.37908,372.941176 L1000.06536,276.862745 L878.496732,276.862745 L834.575163,372.941176 L803.202614,372.941176 L936.143791,80 L943.202614,80 Z M939.673203,142.352941 L891.437908,248.235294 L987.51634,248.235294 L939.673203,142.352941 Z M1144.64052,372.941176 L1144.64052,91.372549 L1150.91503,91.372549 L1337.97386,307.058824 L1337.97386,91.372549 L1365.81699,91.372549 L1365.81699,372.941176 L1359.54248,372.941176 L1173.66013,160 L1173.66013,372.941176 L1144.64052,372.941176 Z M1460.98039,372.941176 L1460.98039,91.372549 L1467.2549,91.372549 L1654.31373,307.058824 L1654.31373,91.372549 L1682.15686,91.372549 L1682.15686,372.941176 L1675.88235,372.941176 L1490,160 L1490,372.941176 L1460.98039,372.941176 Z M1773.00654,91.372549 L1801.24183,91.372549 L1801.24183,372.941176 L1773.00654,372.941176 L1773.00654,91.372549 Z M2006.99346,80 L2138.36601,372.941176 L2108.16993,372.941176 L2063.85621,276.862745 L1942.28758,276.862745 L1898.36601,372.941176 L1866.99346,372.941176 L1999.93464,80 L2006.99346,80 Z M2003.46405,142.352941 L1955.22876,248.235294 L2051.30719,248.235294 L2003.46405,142.352941 Z" id="CANNIA" fill="#61DD8E" fill-rule="nonzero"></path>
        <g id="Icon" transform="translate(30.000000, 30.000000)">
            <rect id="Bound" x="0" y="0" width="400" height="400"></rect>
            <path d="M200,366.342712 C316.666667,283.009379 375,199.676046 375,116.342712 C375,16.3427125 275,16.3427125 200,66.3427125 C125,16.3427125 25,16.3427125 25,116.342712 C25,199.676046 83.3333333,283.009379 200,366.342712 Z" id="Oval" stroke="url(#linearGradient-1)" stroke-width="10" stroke-linecap="round" stroke-linejoin="round" transform="translate(200.000000, 199.921356) rotate(-180.000000) translate(-200.000000, -199.921356) "></path>
            <path d="M200.122951,328.645306 C175.45082,344.705415 153.278689,351.915797 133.606557,350.276453 C145.081967,340.440387 155.737705,333.063338 165.57377,328.145306 C114.754098,328.145306 76.2295082,319.948584 50,303.555142 C92.6229508,292.079732 131.147541,290.440387 165.57377,298.637109 C114.754098,269.128912 86.0655738,231.423994 79.5081967,185.522355 C118.852459,198.637109 154.098361,228.964978 185.245902,276.505961 C170.409836,228.964978 175.327869,170.768256 200,101.915797 C224.508197,170.768256 229.42623,228.964978 214.754098,276.505961 C245.901639,228.964978 281.147541,198.637109 320.491803,185.522355 C313.934426,231.423994 285.245902,269.128912 234.42623,298.637109 C268.852459,290.440387 307.377049,292.079732 350,303.555142 C323.770492,319.948584 285.245902,328.145306 234.42623,328.145306 C244.262295,333.063338 254.918033,340.440387 266.393443,350.276453 C246.721311,351.915797 224.631148,344.705415 200.122951,328.645306 Z" id="Canna" fill="url(#linearGradient-2)"></path>
        </g>
    </g>
</svg>